<?xml version="1.0" encoding="UTF-8" standalone="no"?>
<!DOCTYPE svg PUBLIC "-//W3C//DTD SVG 1.1//EN"
 "http://www.w3.org/Graphics/SVG/1.1/DTD/svg11.dtd">
<!-- Generated by graphviz version 2.42.4 (0)
 -->
<!-- Title: G Pages: 1 -->
<svg width="1429pt" height="705pt"
 viewBox="0.00 0.00 1429.40 705.40" xmlns="http://www.w3.org/2000/svg" xmlns:xlink="http://www.w3.org/1999/xlink">
<g id="graph0" class="graph" transform="scale(1 1) rotate(0) translate(25.2 680.2)">
<title>G</title>
<polygon fill="#020716" stroke="transparent" points="-25.2,25.2 -25.2,-680.2 1404.2,-680.2 1404.2,25.2 -25.2,25.2"/>
<text text-anchor="middle" x="689.5" y="-631" font-family="Noto Sans CJK TC" font-size="25.00" fill="#eafdff">THUNDER VECTOR 3D｜智慧圖譜（Codex × 地端模型）</text>
<!-- user -->
<g id="node1" class="node">
<title>user</title>
<path fill="#08213a" stroke="#42d9ff" stroke-width="1.7" d="M102,-206C102,-206 12,-206 12,-206 6,-206 0,-200 0,-194 0,-194 0,-176 0,-176 0,-170 6,-164 12,-164 12,-164 102,-164 102,-164 108,-164 114,-170 114,-176 114,-176 114,-194 114,-194 114,-200 108,-206 102,-206"/>
<text text-anchor="middle" x="57" y="-188.6" font-family="Noto Sans CJK TC" font-size="13.00" fill="#eafdff">使用者／製作人</text>
<text text-anchor="middle" x="57" y="-174.6" font-family="Noto Sans CJK TC" font-size="13.00" fill="#eafdff">[active]</text>
</g>
<!-- codex -->
<g id="node2" class="node">
<title>codex</title>
<path fill="#321741" stroke="#ff64da" stroke-width="1.7" d="M342,-206C342,-206 262,-206 262,-206 256,-206 250,-200 250,-194 250,-194 250,-176 250,-176 250,-170 256,-164 262,-164 262,-164 342,-164 342,-164 348,-164 354,-170 354,-176 354,-176 354,-194 354,-194 354,-200 348,-206 342,-206"/>
<text text-anchor="middle" x="302" y="-188.6" font-family="Noto Sans CJK TC" font-size="13.00" fill="#eafdff">Codex 主代理</text>
<text text-anchor="middle" x="302" y="-174.6" font-family="Noto Sans CJK TC" font-size="13.00" fill="#eafdff">[ready]</text>
</g>
<!-- user&#45;&gt;codex -->
<g id="edge1" class="edge">
<title>user&#45;&gt;codex</title>
<path fill="none" stroke="#6da6c9" d="M114.05,-185C152.42,-185 203.21,-185 242.16,-185"/>
<polygon fill="#6da6c9" stroke="#6da6c9" points="242.28,-187.63 249.78,-185 242.28,-182.38 242.28,-187.63"/>
<text text-anchor="middle" x="169.5" y="-188" font-family="Noto Sans CJK TC" font-size="10.00" fill="#b9dff4">指派／核准</text>
</g>
<!-- graphjson -->
<g id="node3" class="node">
<title>graphjson</title>
<path fill="#08352b" stroke="#69f2b0" stroke-width="1.7" d="M911.5,-297C911.5,-297 823.5,-297 823.5,-297 817.5,-297 811.5,-291 811.5,-285 811.5,-285 811.5,-267 811.5,-267 811.5,-261 817.5,-255 823.5,-255 823.5,-255 911.5,-255 911.5,-255 917.5,-255 923.5,-261 923.5,-267 923.5,-267 923.5,-285 923.5,-285 923.5,-291 917.5,-297 911.5,-297"/>
<text text-anchor="middle" x="867.5" y="-279.6" font-family="Noto Sans CJK TC" font-size="13.00" fill="#eafdff">智慧圖譜 JSON</text>
<text text-anchor="middle" x="867.5" y="-265.6" font-family="Noto Sans CJK TC" font-size="13.00" fill="#eafdff">[done]</text>
</g>
<!-- codex&#45;&gt;graphjson -->
<g id="edge2" class="edge">
<title>codex&#45;&gt;graphjson</title>
<path fill="none" stroke="#6da6c9" d="M354.05,-196.91C391.56,-205.49 443.82,-217.08 490,-226 579.82,-243.36 602.28,-248.24 693,-260 729.52,-264.74 770.54,-268.59 803.53,-271.32"/>
<polygon fill="#6da6c9" stroke="#6da6c9" points="803.61,-273.96 811.3,-271.96 804.04,-268.73 803.61,-273.96"/>
<text text-anchor="middle" x="576" y="-259" font-family="Noto Sans CJK TC" font-size="10.00" fill="#b9dff4">工作前讀取</text>
</g>
<!-- mcp -->
<g id="node4" class="node">
<title>mcp</title>
<path fill="#3c2c0c" stroke="#ffc95d" stroke-width="1.7" d="M650,-206C650,-206 502,-206 502,-206 496,-206 490,-200 490,-194 490,-194 490,-176 490,-176 490,-170 496,-164 502,-164 502,-164 650,-164 650,-164 656,-164 662,-170 662,-176 662,-176 662,-194 662,-194 662,-200 656,-206 650,-206"/>
<text text-anchor="middle" x="576" y="-188.6" font-family="Noto Sans CJK TC" font-size="13.00" fill="#eafdff">Local Model MCP Bridge</text>
<text text-anchor="middle" x="576" y="-174.6" font-family="Noto Sans CJK TC" font-size="13.00" fill="#eafdff">[ready]</text>
</g>
<!-- codex&#45;&gt;mcp -->
<g id="edge3" class="edge">
<title>codex&#45;&gt;mcp</title>
<path fill="none" stroke="#6da6c9" d="M354.16,-185C390.16,-185 439.37,-185 482.21,-185"/>
<polygon fill="#6da6c9" stroke="#6da6c9" points="482.35,-187.63 489.85,-185 482.35,-182.38 482.35,-187.63"/>
<text text-anchor="middle" x="434.5" y="-188" font-family="Noto Sans CJK TC" font-size="10.00" fill="#b9dff4">委派審查</text>
</g>
<!-- godot -->
<g id="node6" class="node">
<title>godot</title>
<path fill="#08213a" stroke="#88afff" stroke-width="1.7" d="M628,-124C628,-124 524,-124 524,-124 518,-124 512,-118 512,-112 512,-112 512,-94 512,-94 512,-88 518,-82 524,-82 524,-82 628,-82 628,-82 634,-82 640,-88 640,-94 640,-94 640,-112 640,-112 640,-118 634,-124 628,-124"/>
<text text-anchor="middle" x="576" y="-106.6" font-family="Noto Sans CJK TC" font-size="13.00" fill="#eafdff">Godot 4.7.2</text>
<text text-anchor="middle" x="576" y="-92.6" font-family="Noto Sans CJK TC" font-size="13.00" fill="#eafdff">[install required]</text>
</g>
<!-- codex&#45;&gt;godot -->
<g id="edge6" class="edge">
<title>codex&#45;&gt;godot</title>
<path fill="none" stroke="#6da6c9" d="M354.16,-169.58C396.52,-156.81 457.17,-138.52 504.19,-124.35"/>
<polygon fill="#6da6c9" stroke="#6da6c9" points="505.2,-126.79 511.62,-122.11 503.68,-121.76 505.2,-126.79"/>
<text text-anchor="middle" x="434.5" y="-155" font-family="Noto Sans CJK TC" font-size="10.00" fill="#b9dff4">編輯與執行</text>
</g>
<!-- mcp&#45;&gt;graphjson -->
<g id="edge5" class="edge">
<title>mcp&#45;&gt;graphjson</title>
<path fill="none" stroke="#6da6c9" d="M644.14,-206.11C692.34,-221.26 756.84,-241.53 803.96,-256.34"/>
<polygon fill="#6da6c9" stroke="#6da6c9" points="803.42,-258.92 811.37,-258.67 805,-253.92 803.42,-258.92"/>
<text text-anchor="middle" x="723.5" y="-242" font-family="Noto Sans CJK TC" font-size="10.00" fill="#b9dff4">讀取狀態</text>
</g>
<!-- ollama -->
<g id="node5" class="node">
<title>ollama</title>
<path fill="#321741" stroke="#ff64da" stroke-width="1.7" d="M918,-206C918,-206 817,-206 817,-206 811,-206 805,-200 805,-194 805,-194 805,-176 805,-176 805,-170 811,-164 817,-164 817,-164 918,-164 918,-164 924,-164 930,-170 930,-176 930,-176 930,-194 930,-194 930,-200 924,-206 918,-206"/>
<text text-anchor="middle" x="867.5" y="-188.6" font-family="Noto Sans CJK TC" font-size="13.00" fill="#eafdff">Ollama 地端模型</text>
<text text-anchor="middle" x="867.5" y="-174.6" font-family="Noto Sans CJK TC" font-size="13.00" fill="#eafdff">[setup required]</text>
</g>
<!-- mcp&#45;&gt;ollama -->
<g id="edge4" class="edge">
<title>mcp&#45;&gt;ollama</title>
<path fill="none" stroke="#6da6c9" d="M662.21,-184.18C672.58,-184.11 683.03,-184.04 693,-184 720.11,-183.88 726.89,-183.88 754,-184 767.93,-184.06 782.82,-184.17 797.06,-184.29"/>
<polygon fill="#6da6c9" stroke="#6da6c9" points="797.38,-186.91 804.9,-184.35 797.42,-181.66 797.38,-186.91"/>
<text text-anchor="middle" x="723.5" y="-187" font-family="Noto Sans CJK TC" font-size="10.00" fill="#b9dff4">localhost API</text>
</g>
<!-- core -->
<g id="node7" class="node">
<title>core</title>
<path fill="#25194b" stroke="#b18aff" stroke-width="1.7" d="M938,-90C938,-90 797,-90 797,-90 791,-90 785,-84 785,-78 785,-78 785,-46 785,-46 785,-40 791,-34 797,-34 797,-34 938,-34 938,-34 944,-34 950,-40 950,-46 950,-46 950,-78 950,-78 950,-84 944,-90 938,-90"/>
<text text-anchor="middle" x="867.5" y="-72.6" font-family="Noto Sans CJK TC" font-size="13.00" fill="#eafdff">核心循環</text>
<text text-anchor="middle" x="867.5" y="-58.6" font-family="Noto Sans CJK TC" font-size="13.00" fill="#eafdff">移動·射擊·碰撞·得分</text>
<text text-anchor="middle" x="867.5" y="-44.6" font-family="Noto Sans CJK TC" font-size="13.00" fill="#eafdff">[done]</text>
</g>
<!-- godot&#45;&gt;core -->
<g id="edge7" class="edge">
<title>godot&#45;&gt;core</title>
<path fill="none" stroke="#6da6c9" d="M640.17,-94.05C680.28,-88.37 732.79,-80.94 777.13,-74.66"/>
<polygon fill="#6da6c9" stroke="#6da6c9" points="777.68,-77.23 784.74,-73.58 776.95,-72.03 777.68,-77.23"/>
<text text-anchor="middle" x="723.5" y="-90" font-family="Noto Sans CJK TC" font-size="10.00" fill="#b9dff4">運行</text>
</g>
<!-- enemy -->
<g id="node8" class="node">
<title>enemy</title>
<path fill="#08352b" stroke="#69f2b0" stroke-width="1.7" d="M1170,-137C1170,-137 1106,-137 1106,-137 1100,-137 1094,-131 1094,-125 1094,-125 1094,-107 1094,-107 1094,-101 1100,-95 1106,-95 1106,-95 1170,-95 1170,-95 1176,-95 1182,-101 1182,-107 1182,-107 1182,-125 1182,-125 1182,-131 1176,-137 1170,-137"/>
<text text-anchor="middle" x="1138" y="-119.6" font-family="Noto Sans CJK TC" font-size="13.00" fill="#eafdff">敵機與彈幕</text>
<text text-anchor="middle" x="1138" y="-105.6" font-family="Noto Sans CJK TC" font-size="13.00" fill="#eafdff">[done]</text>
</g>
<!-- core&#45;&gt;enemy -->
<g id="edge8" class="edge">
<title>core&#45;&gt;enemy</title>
<path fill="none" stroke="#6da6c9" d="M950.15,-78.42C994.56,-87.35 1048.08,-98.12 1086.44,-105.83"/>
<polygon fill="#6da6c9" stroke="#6da6c9" points="1086.03,-108.43 1093.9,-107.33 1087.07,-103.28 1086.03,-108.43"/>
<text text-anchor="middle" x="1001" y="-96" font-family="Noto Sans CJK TC" font-size="10.00" fill="#b9dff4">支援</text>
</g>
<!-- hud -->
<g id="node10" class="node">
<title>hud</title>
<path fill="#08352b" stroke="#69f2b0" stroke-width="1.7" d="M1212,-55C1212,-55 1064,-55 1064,-55 1058,-55 1052,-49 1052,-43 1052,-43 1052,-25 1052,-25 1052,-19 1058,-13 1064,-13 1064,-13 1212,-13 1212,-13 1218,-13 1224,-19 1224,-25 1224,-25 1224,-43 1224,-43 1224,-49 1218,-55 1212,-55"/>
<text text-anchor="middle" x="1138" y="-37.6" font-family="Noto Sans CJK TC" font-size="13.00" fill="#eafdff">HUD／暫停／Game Over</text>
<text text-anchor="middle" x="1138" y="-23.6" font-family="Noto Sans CJK TC" font-size="13.00" fill="#eafdff">[done]</text>
</g>
<!-- core&#45;&gt;hud -->
<g id="edge10" class="edge">
<title>core&#45;&gt;hud</title>
<path fill="none" stroke="#6da6c9" d="M950.05,-46.27C960.44,-44.63 970.95,-43.15 981,-42 1001.4,-39.67 1023.37,-38.02 1044.21,-36.85"/>
<polygon fill="#6da6c9" stroke="#6da6c9" points="1044.48,-39.47 1051.83,-36.44 1044.2,-34.22 1044.48,-39.47"/>
<text text-anchor="middle" x="1001" y="-45" font-family="Noto Sans CJK TC" font-size="10.00" fill="#b9dff4">狀態輸出</text>
</g>
<!-- boss -->
<g id="node9" class="node">
<title>boss</title>
<path fill="#08352b" stroke="#69f2b0" stroke-width="1.7" d="M1367,-137C1367,-137 1318,-137 1318,-137 1312,-137 1306,-131 1306,-125 1306,-125 1306,-107 1306,-107 1306,-101 1312,-95 1318,-95 1318,-95 1367,-95 1367,-95 1373,-95 1379,-101 1379,-107 1379,-107 1379,-125 1379,-125 1379,-131 1373,-137 1367,-137"/>
<text text-anchor="middle" x="1342.5" y="-119.6" font-family="Noto Sans CJK TC" font-size="13.00" fill="#eafdff">BOSS 戰</text>
<text text-anchor="middle" x="1342.5" y="-105.6" font-family="Noto Sans CJK TC" font-size="13.00" fill="#eafdff">[done]</text>
</g>
<!-- enemy&#45;&gt;boss -->
<g id="edge9" class="edge">
<title>enemy&#45;&gt;boss</title>
<path fill="none" stroke="#6da6c9" d="M1182.44,-116C1216.69,-116 1264.21,-116 1298.38,-116"/>
<polygon fill="#6da6c9" stroke="#6da6c9" points="1298.39,-118.63 1305.89,-116 1298.39,-113.38 1298.39,-118.63"/>
<text text-anchor="middle" x="1265" y="-119" font-family="Noto Sans CJK TC" font-size="10.00" fill="#b9dff4">擴充</text>
</g>
<!-- assets -->
<g id="node11" class="node">
<title>assets</title>
<path fill="#08352b" stroke="#69f2b0" stroke-width="1.7" d="M642.5,-42C642.5,-42 509.5,-42 509.5,-42 503.5,-42 497.5,-36 497.5,-30 497.5,-30 497.5,-12 497.5,-12 497.5,-6 503.5,0 509.5,0 509.5,0 642.5,0 642.5,0 648.5,0 654.5,-6 654.5,-12 654.5,-12 654.5,-30 654.5,-30 654.5,-36 648.5,-42 642.5,-42"/>
<text text-anchor="middle" x="576" y="-24.6" font-family="Noto Sans CJK TC" font-size="13.00" fill="#eafdff">PNG／貼圖／WAV 素材</text>
<text text-anchor="middle" x="576" y="-10.6" font-family="Noto Sans CJK TC" font-size="13.00" fill="#eafdff">[done]</text>
</g>
<!-- assets&#45;&gt;core -->
<g id="edge11" class="edge">
<title>assets&#45;&gt;core</title>
<path fill="none" stroke="#6da6c9" d="M654.58,-31.99C692.34,-37.34 737.94,-43.79 777.16,-49.35"/>
<polygon fill="#6da6c9" stroke="#6da6c9" points="777.11,-51.99 784.91,-50.44 777.85,-46.79 777.11,-51.99"/>
<text text-anchor="middle" x="723.5" y="-49" font-family="Noto Sans CJK TC" font-size="10.00" fill="#b9dff4">呈現／音效</text>
</g>
<!-- verify -->
<g id="node12" class="node">
<title>verify</title>
<path fill="#3c1e16" stroke="#ff926b" stroke-width="1.7" d="M83,-619C83,-619 31,-619 31,-619 25,-619 19,-613 19,-607 19,-607 19,-589 19,-589 19,-583 25,-577 31,-577 31,-577 83,-577 83,-577 89,-577 95,-583 95,-589 95,-589 95,-607 95,-607 95,-613 89,-619 83,-619"/>
<text text-anchor="middle" x="57" y="-601.6" font-family="Noto Sans CJK TC" font-size="13.00" fill="#eafdff">靜態驗證</text>
<text text-anchor="middle" x="57" y="-587.6" font-family="Noto Sans CJK TC" font-size="13.00" fill="#eafdff">[ready]</text>
</g>
<!-- headless -->
<g id="node13" class="node">
<title>headless</title>
<path fill="#3c2c0c" stroke="#ffc95d" stroke-width="1.7" d="M365,-619C365,-619 239,-619 239,-619 233,-619 227,-613 227,-607 227,-607 227,-589 227,-589 227,-583 233,-577 239,-577 239,-577 365,-577 365,-577 371,-577 377,-583 377,-589 377,-589 377,-607 377,-607 377,-613 371,-619 365,-619"/>
<text text-anchor="middle" x="302" y="-601.6" font-family="Noto Sans CJK TC" font-size="13.00" fill="#eafdff">Godot Headless 驗證</text>
<text text-anchor="middle" x="302" y="-587.6" font-family="Noto Sans CJK TC" font-size="13.00" fill="#eafdff">[pending]</text>
</g>
<!-- verify&#45;&gt;headless -->
<g id="edge12" class="edge">
<title>verify&#45;&gt;headless</title>
<path fill="none" stroke="#6da6c9" d="M95.17,-598C127.96,-598 176.93,-598 218.87,-598"/>
<polygon fill="#6da6c9" stroke="#6da6c9" points="219.12,-600.63 226.62,-598 219.12,-595.38 219.12,-600.63"/>
<text text-anchor="middle" x="169.5" y="-601" font-family="Noto Sans CJK TC" font-size="10.00" fill="#b9dff4">先做</text>
</g>
<!-- build -->
<g id="node17" class="node">
<title>build</title>
<path fill="#08352b" stroke="#69f2b0" stroke-width="1.7" d="M617,-496C617,-496 535,-496 535,-496 529,-496 523,-490 523,-484 523,-484 523,-466 523,-466 523,-460 529,-454 535,-454 535,-454 617,-454 617,-454 623,-454 629,-460 629,-466 629,-466 629,-484 629,-484 629,-490 623,-496 617,-496"/>
<text text-anchor="middle" x="576" y="-478.6" font-family="Noto Sans CJK TC" font-size="13.00" fill="#eafdff">Windows EXE</text>
<text text-anchor="middle" x="576" y="-464.6" font-family="Noto Sans CJK TC" font-size="13.00" fill="#eafdff">[planned]</text>
</g>
<!-- headless&#45;&gt;build -->
<g id="edge13" class="edge">
<title>headless&#45;&gt;build</title>
<path fill="none" stroke="#6da6c9" d="M349.45,-577C397.13,-555.44 471.24,-521.92 521.38,-499.25"/>
<polygon fill="#6da6c9" stroke="#6da6c9" points="522.53,-501.61 528.29,-496.12 520.37,-496.82 522.53,-501.61"/>
<text text-anchor="middle" x="434.5" y="-550" font-family="Noto Sans CJK TC" font-size="10.00" fill="#b9dff4">通過後</text>
</g>
<!-- pooling -->
<g id="node14" class="node">
<title>pooling</title>
<path fill="#3c2c0c" stroke="#ffc95d" stroke-width="1.7" d="M334,-537C334,-537 270,-537 270,-537 264,-537 258,-531 258,-525 258,-525 258,-507 258,-507 258,-501 264,-495 270,-495 270,-495 334,-495 334,-495 340,-495 346,-501 346,-507 346,-507 346,-525 346,-525 346,-531 340,-537 334,-537"/>
<text text-anchor="middle" x="302" y="-519.6" font-family="Noto Sans CJK TC" font-size="13.00" fill="#eafdff">物件池優化</text>
<text text-anchor="middle" x="302" y="-505.6" font-family="Noto Sans CJK TC" font-size="13.00" fill="#eafdff">[todo]</text>
</g>
<!-- pooling&#45;&gt;build -->
<g id="edge14" class="edge">
<title>pooling&#45;&gt;build</title>
<path fill="none" stroke="#6da6c9" d="M346.1,-509.5C391.69,-502.63 463.97,-491.74 515.1,-484.03"/>
<polygon fill="#6da6c9" stroke="#6da6c9" points="515.77,-486.58 522.8,-482.87 514.99,-481.39 515.77,-486.58"/>
<text text-anchor="middle" x="434.5" y="-502" font-family="Noto Sans CJK TC" font-size="10.00" fill="#b9dff4">建議完成</text>
</g>
<!-- art -->
<g id="node15" class="node">
<title>art</title>
<path fill="#3c2c0c" stroke="#ffc95d" stroke-width="1.7" d="M367,-455C367,-455 237,-455 237,-455 231,-455 225,-449 225,-443 225,-443 225,-425 225,-425 225,-419 231,-413 237,-413 237,-413 367,-413 367,-413 373,-413 379,-419 379,-425 379,-425 379,-443 379,-443 379,-449 373,-455 367,-455"/>
<text text-anchor="middle" x="302" y="-437.6" font-family="Noto Sans CJK TC" font-size="13.00" fill="#eafdff">Blender GLB 正式模型</text>
<text text-anchor="middle" x="302" y="-423.6" font-family="Noto Sans CJK TC" font-size="13.00" fill="#eafdff">[todo]</text>
</g>
<!-- art&#45;&gt;build -->
<g id="edge15" class="edge">
<title>art&#45;&gt;build</title>
<path fill="none" stroke="#6da6c9" d="M379.13,-445.48C422,-451.94 474.8,-459.9 514.77,-465.92"/>
<polygon fill="#6da6c9" stroke="#6da6c9" points="514.78,-468.58 522.59,-467.1 515.56,-463.39 514.78,-468.58"/>
<text text-anchor="middle" x="434.5" y="-459" font-family="Noto Sans CJK TC" font-size="10.00" fill="#b9dff4">建議完成</text>
</g>
<!-- settings -->
<g id="node16" class="node">
<title>settings</title>
<path fill="#3c2c0c" stroke="#ffc95d" stroke-width="1.7" d="M328,-373C328,-373 276,-373 276,-373 270,-373 264,-367 264,-361 264,-361 264,-343 264,-343 264,-337 270,-331 276,-331 276,-331 328,-331 328,-331 334,-331 340,-337 340,-343 340,-343 340,-361 340,-361 340,-367 334,-373 328,-373"/>
<text text-anchor="middle" x="302" y="-355.6" font-family="Noto Sans CJK TC" font-size="13.00" fill="#eafdff">設定選單</text>
<text text-anchor="middle" x="302" y="-341.6" font-family="Noto Sans CJK TC" font-size="13.00" fill="#eafdff">[todo]</text>
</g>
<!-- settings&#45;&gt;build -->
<g id="edge16" class="edge">
<title>settings&#45;&gt;build</title>
<path fill="none" stroke="#6da6c9" d="M340.25,-368.84C387.04,-390 467.65,-426.46 521.15,-450.65"/>
<polygon fill="#6da6c9" stroke="#6da6c9" points="520.27,-453.13 528.18,-453.83 522.43,-448.35 520.27,-453.13"/>
<text text-anchor="middle" x="434.5" y="-423" font-family="Noto Sans CJK TC" font-size="10.00" fill="#b9dff4">建議完成</text>
</g>
</g>
</svg>
